# xmcd
#
# Track frame offsets: 
#        150
#        12601
#        25964
#        37668
#        50806
#        63967
#        76474
#        89807
#        102069
#        115093
#        125892
#        138241
#        152019
#        164822
#        177585
#        189365
#        202463
#        214687
#        227140
#        240619
#        254002
#        266450
#        278867
#        291732
#        303548
#
# Disc length: 4217 seconds
#
# Revision: 0
# Processed by: cddbd v1.5.1PL0 Copyright (c) Steve Scherf et al.
# Submitted via: ExactAudioCopy v0.95a4
#
DISCID=86107719
DTITLE=Bill Cox - Rough And Rowdy Hillbilly Of The 1930's Vol. 2
DYEAR=1900
DGENRE=Country
TTITLE0=Long Chain Charlie Blues
TTITLE1=New Mama
TTITLE2=The Whole Dam Family
TTITLE3=I Got Those Drunken Blues
TTITLE4=Married Life Blues
TTITLE5=Horse Neck Daddy
TTITLE6=Jazz Baby
TTITLE7=Leavin' Town Blues
TTITLE8=Liquor Bowl Blues
TTITLE9=Oh Sweet Mama
TTITLE10=When The Women Get In Power
TTITLE11=Midnight Special
TTITLE12=Down In Dixie Land
TTITLE13=Sugar Daddy Blues
TTITLE14=When Night Comes On
TTITLE15=Blue Eyed Sally
TTITLE16=Alimony Woman
TTITLE17=The Jailer's Daughter
TTITLE18=Sweet Kentucky Lou
TTITLE19=I Wanna Be Loved
TTITLE20=My Wife And Sweetheart
TTITLE21=Star Boarder Blues
TTITLE22=Filipino Baby
TTITLE23=Chittin Cookin' Time In Cheatem County
TTITLE24=Franklin Roosevelt's Back Again
EXTD=
EXTT0=
EXTT1=
EXTT2=
EXTT3=
EXTT4=
EXTT5=
EXTT6=
EXTT7=
EXTT8=
EXTT9=
EXTT10=
EXTT11=
EXTT12=
EXTT13=
EXTT14=
EXTT15=
EXTT16=
EXTT17=
EXTT18=
EXTT19=
EXTT20=
EXTT21=
EXTT22=
EXTT23=
EXTT24=
PLAYORDER=
